<?xml version="1.0" encoding="UTF-8" standalone="no"?>
<!DOCTYPE svg PUBLIC "-//W3C//DTD SVG 1.1//EN" "http://www.w3.org/Graphics/SVG/1.1/DTD/svg11.dtd">
<svg width="100%" height="100%" viewBox="0 0 971 312" version="1.1" xmlns="http://www.w3.org/2000/svg" xmlns:xlink="http://www.w3.org/1999/xlink" xml:space="preserve" xmlns:serif="http://www.serif.com/" style="fill-rule:evenodd;clip-rule:evenodd;stroke-linejoin:round;stroke-miterlimit:1.41421;">
    <g transform="matrix(1.33333,0,0,1.33333,0,0)">
        <g id="Монтажная-область1" serif:id="Монтажная область1" transform="matrix(1.53911,0,0,0.936,0,0)">
            <rect x="0" y="0" width="473" height="250" style="fill:none;"/>
            <g transform="matrix(0.649725,0,0,1.06838,-6.49725,-10.6838)">
                <path d="M125,30L31.9,63.2L46.1,186.3L125,230L203.9,186.3L218.1,63.2L125,30Z" style="fill:rgb(221,0,49);fill-rule:nonzero;"/>
                <path d="M125,30L125,52.2L125,52.1L125,230L203.9,186.3L218.1,63.2L125,30Z" style="fill:rgb(195,0,47);fill-rule:nonzero;"/>
                <g transform="matrix(0.295935,0,0,0.295935,51.0182,51.0216)">
                    <path d="M249.6,497.1C111.2,496.5 7,386.9 3,260.1C-1.8,109.7 115.4,7 239.7,3C389.8,-1.8 491.9,115.3 496.9,238.1C503.1,387.7 382.9,498.1 249.6,497.1Z" style="fill:none;stroke:white;stroke-width:32.1px;"/>
                </g>
                <g transform="matrix(0.295935,0,0,0.295935,51.0182,51.0216)">
                    <path d="M133.1,250C149.7,259.8 154.9,274.7 156.9,291.6C158.4,304.3 157.7,317 158.3,329.7C159.2,348.4 164.2,348.9 177.6,348.9C183.4,348.9 185.6,350.6 184.7,356.3C184.5,357.2 184.7,358.1 184.7,359.1C184.7,375.5 184.7,375.5 168.2,374.8C145,373.8 132.5,360.5 130.3,337.3C128.7,320 131,302.6 127.8,285.5C125.2,271.5 119.6,266 105.4,265.2C101.8,265 100.4,263.9 100.5,260.4C100.7,256.9 100.5,253.5 100.5,250C100.6,245.6 99.5,240.7 101.1,237C103,232.7 108.6,235.7 112.5,234.5C119.5,232.4 124,227.8 126.1,221C127.9,215.3 129,209.4 129.1,203.4C129.4,187.7 128.1,171.9 131.5,156.5C136,135.7 145.7,127.3 167,125.4C184.6,123.8 184.6,123.8 184.6,141.3C184.6,150.9 184.6,151 175.4,151.2C161.3,151.5 159.4,155.8 158.3,169.2C157.3,181.8 158.3,194.6 156.9,207.3C155.1,224.6 150.1,239.9 133.1,250Z" style="fill:rgb(254,254,254);fill-rule:nonzero;"/>
                </g>
                <g transform="matrix(0.295935,0,0,0.295935,51.0182,51.0216)">
                    <path d="M366.8,250.1C348.2,239 344,221.5 342.7,202.1C342,190.8 342.1,179.5 341.5,168.2C340.9,155.2 337.3,151.6 324.3,151.1C315,150.8 315,150.8 315,141.3C315,140.8 315,140.4 315,139.9C315,124.8 315,124.8 330.5,125.2C354.4,125.9 367,138.5 369.3,162.2C370.6,175.6 370,189 370.5,202.3C370.7,208.8 371.9,215.1 373.9,221.2C377.1,230.7 382.2,234.6 392.3,234.7C397.7,234.7 399.8,236.2 399.3,241.8C398.8,247.8 399,253.8 399.2,259.8C399.3,263.6 398,264.9 394.1,265.1C380.3,265.7 374.2,271.8 371.8,285.7C369.8,297 370.5,308.3 370.4,319.5C370.4,327.8 369.9,336.1 368.1,344.2C363.5,364.4 353.5,372.9 332.9,374.6C314.9,376.1 315.4,376 314.7,358.4C314.4,350.9 316.3,348.7 324,348.8C337.5,348.9 340.8,344.9 341.4,331.3C342,316.3 341.6,301.3 343.8,286.4C346.3,271.2 352.4,258.5 366.8,250.1Z" style="fill:rgb(254,254,254);fill-rule:nonzero;"/>
                </g>
                <g transform="matrix(0.295935,0,0,0.295935,51.0182,51.0216)">
                    <path d="M310.4,266.6C301,266.7 293,259 293,250C293,241.3 300.9,233.4 309.8,233.3C319.2,233.2 327.2,240.9 327.2,250C327.2,258.8 319.4,266.5 310.4,266.6Z" style="fill:rgb(254,254,254);fill-rule:nonzero;"/>
                </g>
                <g transform="matrix(0.295935,0,0,0.295935,51.0182,51.0216)">
                    <path d="M266.5,249.9C266.5,259.9 259.7,266.7 249.7,266.7C240.3,266.7 233.2,259.6 233.2,250.3C233.2,240.8 240.6,233.4 250.1,233.4C259.5,233.4 266.5,240.4 266.5,249.9Z" style="fill:rgb(254,254,254);fill-rule:nonzero;"/>
                </g>
                <g transform="matrix(0.295935,0,0,0.295935,51.0182,51.0216)">
                    <path d="M190,266.6C180.2,266.6 173,259.4 173.1,249.8C173.2,240.4 180.4,233.4 189.7,233.3C199,233.3 206.9,241.1 206.8,250.3C206.7,259.2 199.1,266.6 190,266.6Z" style="fill:rgb(254,254,254);fill-rule:nonzero;"/>
                </g>
            </g>
            <g transform="matrix(1.0077,0,0,1.65701,-100.408,-158.45)">
                <path d="M251.395,196.023L251.395,187.586C256.434,189.461 262.129,190.398 268.48,190.398C276.191,190.398 280.047,187.82 280.047,182.664C280.047,178.914 277.68,177.039 272.945,177.039L265.07,177.039C254.781,177.039 249.637,172.352 249.637,162.977C249.637,152.664 256.961,147.508 271.609,147.508C277.234,147.508 282.566,148.328 287.605,149.969L287.605,158.406C282.566,156.531 277.234,155.594 271.609,155.594C263.172,155.594 258.953,158.055 258.953,162.977C258.953,166.727 260.992,168.602 265.07,168.602L272.945,168.602C283.891,168.602 289.363,173.289 289.363,182.664C289.363,193.211 282.402,198.484 268.48,198.484C262.129,198.484 256.434,197.664 251.395,196.023Z" style="fill-rule:nonzero;"/>
                <path d="M293.23,147.859L302.688,147.859L308.066,183.965L321.145,147.859L330.109,147.859L342.344,182.559L348.039,147.859L357.215,147.859L347.758,198.133L338.898,198.133L325.082,158.687L310.246,198.133L301.492,198.133L293.23,147.859Z" style="fill-rule:nonzero;"/>
                <path d="M361.961,198.133L361.961,191.102C378.719,179.453 387.098,170.078 387.098,162.977C387.098,158.055 384.051,155.594 377.957,155.594C372.801,155.594 367.938,156.883 363.367,159.461L363.367,151.023C367.938,148.68 372.801,147.508 377.957,147.508C390.262,147.508 396.414,152.43 396.414,162.273C396.414,170.945 389.699,180.203 376.27,190.047L396.414,190.047L396.414,198.133L361.961,198.133Z" style="fill-rule:nonzero;"/>
                <path d="M405.203,198.133L405.203,147.859L414.52,147.859L441.063,184.492L441.063,147.859L450.027,147.859L450.027,198.133L440.711,198.133L414.168,160.727L414.168,198.133L405.203,198.133Z" style="fill-rule:nonzero;"/>
                <path d="M500.652,195.812C496.598,197.594 491.523,198.484 485.43,198.484C467.688,198.484 458.816,189.754 458.816,172.293C458.816,155.769 467.84,147.508 485.887,147.508C491.395,147.508 496.316,148.328 500.652,149.969L500.652,158.406C496.316,156.531 491.629,155.594 486.59,155.594C474.52,155.594 468.484,161.16 468.484,172.293C468.484,184.363 474.18,190.398 485.57,190.398C487.258,190.398 489.18,190.117 491.336,189.555L491.336,174.93L500.652,174.93L500.652,195.812Z" style="fill-rule:nonzero;"/>
                <path d="M524.84,172.996L505.047,147.859L516.824,147.859L530.711,166.211L544.598,147.859L556.375,147.859L536.617,172.996L556.375,198.133L544.598,198.133L530.711,179.781L516.824,198.133L505.047,198.133L524.84,172.996Z" style="fill-rule:nonzero;"/>
            </g>
            <g transform="matrix(0.649725,0,0,1.06838,-6.97313,-48.6946)">
                <path d="M250.42,222.07C249.997,221.914 249.395,221.836 248.613,221.836C246.823,221.836 245.928,222.822 245.928,224.795C245.928,226.702 246.699,227.656 248.242,227.656C248.984,227.656 249.71,227.48 250.42,227.129L250.42,222.07ZM253.008,229.219C253.008,232.214 251.208,233.711 247.607,233.711C246.344,233.711 245.225,233.548 244.248,233.223L244.248,231.172C245.244,231.497 246.37,231.66 247.627,231.66C249.489,231.66 250.42,230.879 250.42,229.316C249.652,229.642 248.825,229.805 247.939,229.805C244.893,229.805 243.369,228.141 243.369,224.814C243.369,221.436 245.143,219.746 248.691,219.746C249.883,219.746 251.322,219.886 253.008,220.166L253.008,229.219Z" style="fill-rule:nonzero;"/>
                <path d="M259.775,219.746C262.887,219.746 264.443,221.335 264.443,224.512C264.443,224.935 264.414,225.358 264.355,225.781L257.549,225.781C257.549,227.227 258.61,227.949 260.732,227.949C261.768,227.949 262.803,227.852 263.838,227.656L263.838,229.707C262.933,229.902 261.833,230 260.537,230C256.82,230 254.961,228.252 254.961,224.756C254.961,221.416 256.566,219.746 259.775,219.746ZM257.549,223.984L261.924,223.984L261.924,223.906C261.924,222.487 261.208,221.777 259.775,221.777C258.408,221.777 257.666,222.513 257.549,223.984Z" style="fill-rule:nonzero;"/>
                <path d="M266.387,230L266.387,219.746L268.389,219.746L268.711,221.25C269.694,220.247 270.814,219.746 272.07,219.746C274.499,219.746 275.713,221.009 275.713,223.535L275.713,230L273.125,230L273.125,223.535C273.125,222.402 272.562,221.836 271.436,221.836C270.596,221.836 269.775,222.171 268.975,222.842L268.975,230L266.387,230Z" style="fill-rule:nonzero;"/>
                <path d="M282.48,219.746C285.592,219.746 287.148,221.335 287.148,224.512C287.148,224.935 287.119,225.358 287.061,225.781L280.254,225.781C280.254,227.227 281.315,227.949 283.437,227.949C284.473,227.949 285.508,227.852 286.543,227.656L286.543,229.707C285.638,229.902 284.538,230 283.242,230C279.525,230 277.666,228.252 277.666,224.756C277.666,221.416 279.271,219.746 282.48,219.746ZM280.254,223.984L284.629,223.984L284.629,223.906C284.629,222.487 283.913,221.777 282.48,221.777C281.113,221.777 280.371,222.513 280.254,223.984Z" style="fill-rule:nonzero;"/>
                <path d="M289.092,230L289.092,219.746L291.094,219.746L291.416,221.055C292.314,220.182 293.265,219.746 294.268,219.746L294.268,221.836C293.304,221.836 292.441,222.236 291.68,223.037L291.68,230L289.092,230Z" style="fill-rule:nonzero;"/>
                <path d="M295.244,226.807C295.244,224.769 296.729,223.75 299.697,223.75C300.394,223.75 301.09,223.815 301.787,223.945L301.787,223.174C301.787,222.256 301.126,221.797 299.805,221.797C298.685,221.797 297.441,221.96 296.074,222.285L296.074,220.234C297.441,219.909 298.685,219.746 299.805,219.746C302.852,219.746 304.375,220.872 304.375,223.125L304.375,230L302.871,230L301.953,229.082C301.061,229.694 300.078,230 299.004,230C296.497,230 295.244,228.936 295.244,226.807ZM301.787,225.703C301.136,225.573 300.439,225.508 299.697,225.508C298.454,225.508 297.832,225.931 297.832,226.777C297.832,227.689 298.353,228.145 299.395,228.145C300.254,228.145 301.051,227.878 301.787,227.344L301.787,225.703Z" style="fill-rule:nonzero;"/>
                <path d="M306.67,218.086L308.584,218.086L308.975,219.746L311.553,219.746L311.553,221.797L309.258,221.797L309.258,226.514C309.258,227.471 309.671,227.949 310.498,227.949L311.553,227.949L311.553,230L309.248,230C307.529,230 306.67,229.079 306.67,227.236L306.67,218.086Z" style="fill-rule:nonzero;"/>
                <path d="M317.637,219.746C320.749,219.746 322.305,221.335 322.305,224.512C322.305,224.935 322.275,225.358 322.217,225.781L315.41,225.781C315.41,227.227 316.471,227.949 318.594,227.949C319.629,227.949 320.664,227.852 321.699,227.656L321.699,229.707C320.794,229.902 319.694,230 318.398,230C314.681,230 312.822,228.252 312.822,224.756C312.822,221.416 314.427,219.746 317.637,219.746ZM315.41,223.984L319.785,223.984L319.785,223.906C319.785,222.487 319.069,221.777 317.637,221.777C316.27,221.777 315.527,222.513 315.41,223.984Z" style="fill-rule:nonzero;"/>
                <path d="M328.154,226.807C328.154,224.769 329.639,223.75 332.607,223.75C333.304,223.75 334.001,223.815 334.697,223.945L334.697,223.174C334.697,222.256 334.036,221.797 332.715,221.797C331.595,221.797 330.352,221.96 328.984,222.285L328.984,220.234C330.352,219.909 331.595,219.746 332.715,219.746C335.762,219.746 337.285,220.872 337.285,223.125L337.285,230L335.781,230L334.863,229.082C333.971,229.694 332.988,230 331.914,230C329.408,230 328.154,228.936 328.154,226.807ZM334.697,225.703C334.046,225.573 333.35,225.508 332.607,225.508C331.364,225.508 330.742,225.931 330.742,226.777C330.742,227.689 331.263,228.145 332.305,228.145C333.164,228.145 333.962,227.878 334.697,227.344L334.697,225.703Z" style="fill-rule:nonzero;"/>
                <path d="M342.314,227.324C342.959,227.676 343.652,227.852 344.395,227.852C345.937,227.852 346.709,226.768 346.709,224.6C346.709,222.757 345.856,221.836 344.15,221.836C343.415,221.836 342.803,221.882 342.314,221.973L342.314,227.324ZM339.727,220.166C341.087,219.886 342.526,219.746 344.043,219.746C347.526,219.746 349.268,221.37 349.268,224.619C349.268,228.206 347.646,230 344.404,230C343.714,230 343.018,229.837 342.314,229.512L342.314,233.711L339.727,233.711L339.727,220.166Z" style="fill-rule:nonzero;"/>
                <path d="M353.809,216.035L353.809,218.086L351.221,218.086L351.221,216.035L353.809,216.035ZM353.809,219.746L353.809,230L351.221,230L351.221,219.746L353.809,219.746Z" style="fill-rule:nonzero;"/>
                <path d="M360.645,230L360.645,219.746L362.646,219.746L362.949,221.23C363.867,220.241 364.971,219.746 366.26,219.746C367.549,219.746 368.431,220.215 368.906,221.152C369.954,220.215 371.051,219.746 372.197,219.746C374.554,219.746 375.732,221.045 375.732,223.643L375.732,230L373.145,230L373.145,223.545C373.145,222.406 372.63,221.836 371.602,221.836C370.833,221.836 370.094,222.181 369.385,222.871L369.385,230L366.797,230L366.797,223.574C366.797,222.415 366.322,221.836 365.371,221.836C364.616,221.836 363.903,222.181 363.232,222.871L363.232,230L360.645,230Z" style="fill-rule:nonzero;"/>
                <path d="M380.273,224.834C380.273,226.976 381.104,228.047 382.764,228.047C384.424,228.047 385.254,226.976 385.254,224.834C385.254,222.744 384.424,221.699 382.764,221.699C381.104,221.699 380.273,222.744 380.273,224.834ZM377.686,224.873C377.686,221.436 379.378,219.717 382.764,219.717C386.149,219.717 387.842,221.436 387.842,224.873C387.842,228.304 386.149,230.02 382.764,230.02C379.391,230.02 377.699,228.304 377.686,224.873Z" style="fill-rule:nonzero;"/>
                <path d="M396.289,222.422C395.755,222.07 395.085,221.895 394.277,221.895C392.669,221.895 391.865,222.796 391.865,224.6C391.865,226.742 392.702,227.813 394.375,227.813C395.052,227.813 395.69,227.718 396.289,227.529L396.289,222.422ZM398.877,229.385C397.308,229.795 395.775,230 394.277,230C390.964,230 389.307,228.223 389.307,224.668C389.307,221.387 390.928,219.746 394.17,219.746C394.86,219.746 395.566,219.909 396.289,220.234L396.289,216.035L398.877,216.035L398.877,229.385Z" style="fill-rule:nonzero;"/>
                <path d="M410.547,219.746L410.547,230L408.525,230L408.213,228.691C407.035,229.564 405.785,230 404.463,230C402.367,230 401.318,228.76 401.318,226.279L401.318,219.746L403.906,219.746L403.906,226.211C403.906,227.344 404.401,227.91 405.391,227.91C406.23,227.91 407.087,227.575 407.959,226.904L407.959,219.746L410.547,219.746Z" style="fill-rule:nonzero;"/>
                <rect x="412.988" y="216.035" width="2.588" height="13.965" style="fill-rule:nonzero;"/>
                <path d="M422.344,219.746C425.456,219.746 427.012,221.335 427.012,224.512C427.012,224.935 426.982,225.358 426.924,225.781L420.117,225.781C420.117,227.227 421.178,227.949 423.301,227.949C424.336,227.949 425.371,227.852 426.406,227.656L426.406,229.707C425.501,229.902 424.401,230 423.105,230C419.388,230 417.529,228.252 417.529,224.756C417.529,221.416 419.134,219.746 422.344,219.746ZM420.117,223.984L424.492,223.984L424.492,223.906C424.492,222.487 423.776,221.777 422.344,221.777C420.977,221.777 420.234,222.513 420.117,223.984Z" style="fill-rule:nonzero;"/>
                <path d="M433.35,230L433.35,219.746C433.35,216.934 434.886,215.527 437.959,215.527C438.799,215.527 439.561,215.658 440.244,215.918L440.244,217.969C439.6,217.708 438.9,217.578 438.145,217.578C436.673,217.578 435.937,218.301 435.937,219.746L439.014,219.746L439.014,221.797L435.937,221.797L435.937,230L433.35,230Z" style="fill-rule:nonzero;"/>
                <path d="M439.902,230L439.902,219.746L441.904,219.746L442.227,221.055C443.125,220.182 444.076,219.746 445.078,219.746L445.078,221.836C444.115,221.836 443.252,222.236 442.49,223.037L442.49,230L439.902,230Z" style="fill-rule:nonzero;"/>
                <path d="M448.643,224.834C448.643,226.976 449.473,228.047 451.133,228.047C452.793,228.047 453.623,226.976 453.623,224.834C453.623,222.744 452.793,221.699 451.133,221.699C449.473,221.699 448.643,222.744 448.643,224.834ZM446.055,224.873C446.055,221.436 447.747,219.717 451.133,219.717C454.518,219.717 456.211,221.436 456.211,224.873C456.211,228.304 454.518,230.02 451.133,230.02C447.76,230.02 446.068,228.304 446.055,224.873Z" style="fill-rule:nonzero;"/>
                <path d="M458.164,230L458.164,219.746L460.166,219.746L460.469,221.23C461.387,220.241 462.49,219.746 463.779,219.746C465.068,219.746 465.951,220.215 466.426,221.152C467.474,220.215 468.571,219.746 469.717,219.746C472.074,219.746 473.252,221.045 473.252,223.643L473.252,230L470.664,230L470.664,223.545C470.664,222.406 470.15,221.836 469.121,221.836C468.353,221.836 467.614,222.181 466.904,222.871L466.904,230L464.316,230L464.316,223.574C464.316,222.415 463.841,221.836 462.891,221.836C462.135,221.836 461.423,222.181 460.752,222.871L460.752,230L458.164,230Z" style="fill-rule:nonzero;"/>
                <path d="M480.088,229.512L480.088,227.363C481.227,227.819 482.542,228.047 484.033,228.047C485.146,228.047 485.703,227.689 485.703,226.973C485.703,226.289 485.329,225.947 484.58,225.947L482.725,225.947C480.641,225.947 479.6,224.922 479.6,222.871C479.6,220.723 481.12,219.648 484.16,219.648C485.449,219.648 486.663,219.844 487.803,220.234L487.803,222.383C486.663,221.927 485.426,221.699 484.092,221.699C482.692,221.699 481.992,222.057 481.992,222.773C481.992,223.457 482.399,223.799 483.213,223.799L484.873,223.799C487.152,223.799 488.291,224.824 488.291,226.875C488.291,229.023 486.839,230.098 483.936,230.098C482.51,230.098 481.227,229.902 480.088,229.512Z" style="fill-rule:nonzero;"/>
                <path d="M489.219,219.746L491.826,219.746L493.154,226.885L495.527,219.746L497.744,219.746L500.303,226.885L501.455,219.746L504.15,219.746L501.475,230L499.043,230L496.631,222.725L494.189,230L491.719,230L489.219,219.746Z" style="fill-rule:nonzero;"/>
                <path d="M505.225,226.807C505.225,224.769 506.709,223.75 509.678,223.75C510.374,223.75 511.071,223.815 511.768,223.945L511.768,223.174C511.768,222.256 511.107,221.797 509.785,221.797C508.665,221.797 507.422,221.96 506.055,222.285L506.055,220.234C507.422,219.909 508.665,219.746 509.785,219.746C512.832,219.746 514.355,220.872 514.355,223.125L514.355,230L512.852,230L511.934,229.082C511.042,229.694 510.059,230 508.984,230C506.478,230 505.225,228.936 505.225,226.807ZM511.768,225.703C511.117,225.573 510.42,225.508 509.678,225.508C508.434,225.508 507.812,225.931 507.812,226.777C507.812,227.689 508.333,228.145 509.375,228.145C510.234,228.145 511.032,227.878 511.768,227.344L511.768,225.703Z" style="fill-rule:nonzero;"/>
                <path d="M523.359,222.07C522.936,221.914 522.334,221.836 521.553,221.836C519.762,221.836 518.867,222.822 518.867,224.795C518.867,226.702 519.639,227.656 521.182,227.656C521.924,227.656 522.65,227.48 523.359,227.129L523.359,222.07ZM525.947,229.219C525.947,232.214 524.147,233.711 520.547,233.711C519.284,233.711 518.164,233.548 517.187,233.223L517.187,231.172C518.184,231.497 519.31,231.66 520.566,231.66C522.428,231.66 523.359,230.879 523.359,229.316C522.591,229.642 521.764,229.805 520.879,229.805C517.832,229.805 516.309,228.141 516.309,224.814C516.309,221.436 518.083,219.746 521.631,219.746C522.822,219.746 524.261,219.886 525.947,220.166L525.947,229.219Z" style="fill-rule:nonzero;"/>
                <path d="M534.951,222.07C534.528,221.914 533.926,221.836 533.145,221.836C531.354,221.836 530.459,222.822 530.459,224.795C530.459,226.702 531.23,227.656 532.773,227.656C533.516,227.656 534.242,227.48 534.951,227.129L534.951,222.07ZM537.539,229.219C537.539,232.214 535.739,233.711 532.139,233.711C530.876,233.711 529.756,233.548 528.779,233.223L528.779,231.172C529.775,231.497 530.902,231.66 532.158,231.66C534.02,231.66 534.951,230.879 534.951,229.316C534.183,229.642 533.356,229.805 532.471,229.805C529.424,229.805 527.9,228.141 527.9,224.814C527.9,221.436 529.674,219.746 533.223,219.746C534.414,219.746 535.853,219.886 537.539,220.166L537.539,229.219Z" style="fill-rule:nonzero;"/>
                <path d="M544.307,219.746C547.419,219.746 548.975,221.335 548.975,224.512C548.975,224.935 548.945,225.358 548.887,225.781L542.08,225.781C542.08,227.227 543.141,227.949 545.264,227.949C546.299,227.949 547.334,227.852 548.369,227.656L548.369,229.707C547.464,229.902 546.364,230 545.068,230C541.351,230 539.492,228.252 539.492,224.756C539.492,221.416 541.097,219.746 544.307,219.746ZM542.08,223.984L546.455,223.984L546.455,223.906C546.455,222.487 545.739,221.777 544.307,221.777C542.939,221.777 542.197,222.513 542.08,223.984Z" style="fill-rule:nonzero;"/>
                <path d="M550.918,230L550.918,219.746L552.92,219.746L553.242,221.055C554.141,220.182 555.091,219.746 556.094,219.746L556.094,221.836C555.13,221.836 554.268,222.236 553.506,223.037L553.506,230L550.918,230Z" style="fill-rule:nonzero;"/>
                <path d="M568.447,222.422C567.913,222.07 567.243,221.895 566.436,221.895C564.827,221.895 564.023,222.796 564.023,224.6C564.023,226.742 564.86,227.813 566.533,227.813C567.21,227.813 567.848,227.718 568.447,227.529L568.447,222.422ZM571.035,229.385C569.466,229.795 567.933,230 566.436,230C563.122,230 561.465,228.223 561.465,224.668C561.465,221.387 563.086,219.746 566.328,219.746C567.018,219.746 567.725,219.909 568.447,220.234L568.447,216.035L571.035,216.035L571.035,229.385Z" style="fill-rule:nonzero;"/>
                <path d="M575.576,224.834C575.576,226.976 576.406,228.047 578.066,228.047C579.727,228.047 580.557,226.976 580.557,224.834C580.557,222.744 579.727,221.699 578.066,221.699C576.406,221.699 575.576,222.744 575.576,224.834ZM572.988,224.873C572.988,221.436 574.681,219.717 578.066,219.717C581.452,219.717 583.145,221.436 583.145,224.873C583.145,228.304 581.452,230.02 578.066,230.02C574.694,230.02 573.001,228.304 572.988,224.873Z" style="fill-rule:nonzero;"/>
                <path d="M592.666,229.707C591.82,229.902 590.941,230 590.029,230C586.383,230 584.561,228.226 584.561,224.678C584.561,221.39 586.383,219.746 590.029,219.746C590.941,219.746 591.82,219.844 592.666,220.039L592.666,222.09C591.82,221.895 591.006,221.797 590.225,221.797C588.174,221.797 587.148,222.757 587.148,224.678C587.148,226.859 588.174,227.949 590.225,227.949C591.006,227.949 591.82,227.852 592.666,227.656L592.666,229.707Z" style="fill-rule:nonzero;"/>
            </g>
        </g>
    </g>
</svg>
